<svg xmlns="http://www.w3.org/2000/svg" width="152" height="152" viewBox="0 0 152 152">
  <path id="Icon_awesome-user-circle" data-name="Icon awesome-user-circle" d="M76,.563a76,76,0,1,0,76,76A75.987,75.987,0,0,0,76,.563Zm0,29.419A26.968,26.968,0,1,1,49.032,56.95,26.968,26.968,0,0,1,76,29.982ZM76,135.4a58.724,58.724,0,0,1-44.9-20.9A34.167,34.167,0,0,1,61.29,96.175a7.5,7.5,0,0,1,2.176.337A40.575,40.575,0,0,0,76,98.627a40.421,40.421,0,0,0,12.534-2.115,7.5,7.5,0,0,1,2.176-.337A34.167,34.167,0,0,1,120.9,114.5,58.724,58.724,0,0,1,76,135.4Z" transform="translate(0 -0.563)" fill="#02aab2"/>
</svg>
