<svg xmlns="http://www.w3.org/2000/svg" width="31" height="31" viewBox="0 0 31 31">
  <path id="comment_profile" d="M15.5.563A15.5,15.5,0,1,0,31,16.063,15.5,15.5,0,0,0,15.5.563Zm0,6a5.5,5.5,0,1,1-5.5,5.5A5.5,5.5,0,0,1,15.5,6.563Zm0,21.5A11.977,11.977,0,0,1,6.344,23.8,6.968,6.968,0,0,1,12.5,20.063a1.529,1.529,0,0,1,.444.069,8.275,8.275,0,0,0,2.556.431,8.244,8.244,0,0,0,2.556-.431,1.529,1.529,0,0,1,.444-.069A6.968,6.968,0,0,1,24.656,23.8,11.977,11.977,0,0,1,15.5,28.062Z" transform="translate(0 -0.563)"/>
</svg>
