<svg xmlns="http://www.w3.org/2000/svg" width="47.247" height="43.814" viewBox="0 0 47.247 43.814">
  <g id="empty_heart" transform="translate(-3.375 -3.938)" fill="none">
    <path d="M37.9,3.938h-.114A12.622,12.622,0,0,0,27,9.5a12.622,12.622,0,0,0-10.789-5.56H16.1c-7.03.068-12.72,7.4-12.72,14.449,0,4.2,1.84,8.55,5.429,13.456C15.641,41.19,27,47.752,27,47.752S38.356,41.19,45.193,31.843c3.589-4.906,5.429-9.254,5.429-13.456C50.622,11.334,44.932,4.006,37.9,3.938Z" stroke="none"/>
    <path d="M 16.11116027832031 6.9375 C 13.68408966064453 6.965538024902344 11.29745101928711 8.223049163818359 9.389808654785156 10.47956085205078 C 7.502029418945312 12.71257019042969 6.375 15.66846084594727 6.375 18.38656997680664 C 6.375 20.08432960510254 6.749858856201172 21.8277702331543 7.520988464355469 23.71652030944824 C 8.323627471923828 25.68243980407715 9.5352783203125 27.7611198425293 11.22517013549805 30.07135009765625 C 13.83736801147461 33.64250183105469 17.63497924804688 37.37258911132812 22.20744895935059 40.85834884643555 C 24.14627075195312 42.33637619018555 25.85323715209961 43.48666000366211 26.99819564819336 44.22335433959961 C 30.19971656799316 42.16248321533203 37.8084602355957 36.85623931884766 42.77141952514648 30.07134056091309 C 44.46129989624023 27.7611198425293 45.67295074462891 25.68243980407715 46.47558975219727 23.71652030944824 C 47.24671936035156 21.8277702331543 47.62157821655273 20.08432960510254 47.62157821655273 18.38656997680664 C 47.62157821655273 15.66846084594727 46.49454879760742 12.71257019042969 44.60676956176758 10.47956085205078 C 42.69912719726562 8.223049163818359 40.3124885559082 6.965538024902344 37.88542175292969 6.9375 L 37.78776931762695 6.9375 C 34.26644897460938 6.9375 31.24995994567871 8.467399597167969 29.51175880432129 11.13492202758789 L 26.9982795715332 14.99222183227539 L 24.48480987548828 11.13491058349609 C 22.74662971496582 8.467399597167969 19.73014068603516 6.9375 16.20880889892578 6.9375 L 16.11116027832031 6.9375 M 16.09523010253906 3.9375 C 16.12931060791016 3.9375 16.17473983764648 3.9375 16.20880889892578 3.9375 C 20.71767807006836 3.9375 24.70410919189453 5.976329803466797 26.99828910827637 9.497100830078125 C 29.29247856140137 5.976329803466797 33.27890014648438 3.9375 37.78776931762695 3.9375 C 37.82184982299805 3.9375 37.86727905273438 3.9375 37.90135192871094 3.9375 C 44.93154907226562 4.005641937255859 50.62157821655273 11.33366012573242 50.62157821655273 18.38656997680664 C 50.62157821655273 22.58879089355469 48.78168869018555 26.9361400604248 45.19276809692383 31.84251022338867 C 38.35564041137695 41.18960952758789 26.99828910827637 47.75164031982422 26.99828910827637 47.75164031982422 C 26.99828910827637 47.75164031982422 15.64093780517578 41.18960952758789 8.803810119628906 31.84251022338867 C 5.214889526367188 26.9361400604248 3.375 22.58879089355469 3.375 18.38656997680664 C 3.375 11.33366012573242 9.065029144287109 4.005641937255859 16.09523010253906 3.9375 Z" stroke="none" fill="#7fd3d1"/>
  </g>
</svg>
