<svg xmlns="http://www.w3.org/2000/svg" width="47.247" height="43.814" viewBox="0 0 47.247 43.814">
  <g id="그룹_36" data-name="그룹 36" transform="translate(-1301.877 -457.093)">
    <g id="Icon_ionic-ios-heart" data-name="Icon ionic-ios-heart" transform="translate(1298.502 453.155)" fill="#7fd3d1">
      <path d="M 26.99781036376953 45.99777984619141 C 25.92844581604004 45.33410263061523 23.81951141357422 43.97098922729492 21.33573913574219 42.07994842529297 C 18.05643844604492 39.58322143554688 13.43034934997559 35.62678146362305 10.01449871063232 30.95693016052246 C 8.251568794250488 28.54685020446777 6.98167896270752 26.36396026611328 6.132278919219971 24.28350067138672 C 5.286259174346924 22.21133995056152 4.874999046325684 20.28244018554688 4.874999046325684 18.38656997680664 C 4.874999046325684 15.27894020080566 6.1030592918396 12.04398059844971 8.244298934936523 9.511150360107422 C 9.306988716125488 8.254130363464355 10.51820945739746 7.260350227355957 11.84433937072754 6.557420253753662 C 13.21760654449463 5.829507350921631 14.65038585662842 5.452727317810059 16.10290336608887 5.4375 L 16.20880889892578 5.4375 C 18.18712997436523 5.4375 20.10256958007812 5.884770393371582 21.74807929992676 6.73097038269043 C 23.37879943847656 7.569560050964355 24.75971984863281 8.809249877929688 25.74154853820801 10.31602001190186 L 26.99828910827637 12.24468040466309 L 28.25502967834473 10.31602001190186 C 29.23685836791992 8.809249877929688 30.61777877807617 7.569560050964355 32.24850845336914 6.73097038269043 C 33.89400863647461 5.884770393371582 35.8094596862793 5.4375 37.78776931762695 5.4375 L 37.89368438720703 5.4375 C 39.3462028503418 5.452727317810059 40.77898025512695 5.829507350921631 42.15224838256836 6.557420253753662 C 43.47837066650391 7.260350227355957 44.68959808349609 8.254130363464355 45.75227737426758 9.511150360107422 C 47.89352035522461 12.04397010803223 49.12157821655273 15.27894020080566 49.12157821655273 18.38656997680664 C 49.12157821655273 20.28244018554688 48.71031951904297 22.21133995056152 47.86429977416992 24.28350067138672 C 47.01490020751953 26.36396026611328 45.74501800537109 28.54685020446777 43.98208999633789 30.9569206237793 C 38.40357208251953 38.58337020874023 29.60370254516602 44.37800598144531 26.99781036376953 45.99777984619141 Z" stroke="none"/>
      <path d="M 16.11116027832031 6.9375 C 13.68408966064453 6.965538024902344 11.29745101928711 8.223049163818359 9.389808654785156 10.47956085205078 C 7.502029418945312 12.71257019042969 6.375 15.66846084594727 6.375 18.38656997680664 C 6.375 20.08432960510254 6.749858856201172 21.8277702331543 7.520988464355469 23.71652030944824 C 8.323627471923828 25.68243980407715 9.5352783203125 27.7611198425293 11.22517013549805 30.07135009765625 C 13.83736801147461 33.64250183105469 17.63497924804688 37.37258911132812 22.20744895935059 40.85834884643555 C 24.14627075195312 42.33637619018555 25.85323715209961 43.48666000366211 26.99819564819336 44.22335433959961 C 30.19971656799316 42.16248321533203 37.8084602355957 36.85623931884766 42.77141952514648 30.07134056091309 C 44.46129989624023 27.7611198425293 45.67295074462891 25.68243980407715 46.47558975219727 23.71652030944824 C 47.24671936035156 21.8277702331543 47.62157821655273 20.08432960510254 47.62157821655273 18.38656997680664 C 47.62157821655273 15.66846084594727 46.49454879760742 12.71257019042969 44.60676956176758 10.47956085205078 C 42.69912719726562 8.223049163818359 40.3124885559082 6.965538024902344 37.88542175292969 6.9375 L 37.78776931762695 6.9375 C 34.26644897460938 6.9375 31.24995994567871 8.467399597167969 29.51175880432129 11.13492202758789 L 26.9982795715332 14.99222183227539 L 24.48480987548828 11.13491058349609 C 22.74662971496582 8.467399597167969 19.73014068603516 6.9375 16.20880889892578 6.9375 L 16.11116027832031 6.9375 M 16.09523010253906 3.9375 C 16.12931060791016 3.9375 16.17473983764648 3.9375 16.20880889892578 3.9375 C 20.71767807006836 3.9375 24.70410919189453 5.976329803466797 26.99828910827637 9.497100830078125 C 29.29247856140137 5.976329803466797 33.27890014648438 3.9375 37.78776931762695 3.9375 C 37.82184982299805 3.9375 37.86727905273438 3.9375 37.90135192871094 3.9375 C 44.93154907226562 4.005641937255859 50.62157821655273 11.33366012573242 50.62157821655273 18.38656997680664 C 50.62157821655273 22.58879089355469 48.78168869018555 26.9361400604248 45.19276809692383 31.84251022338867 C 38.35564041137695 41.18960952758789 26.99828910827637 47.75164031982422 26.99828910827637 47.75164031982422 C 26.99828910827637 47.75164031982422 15.64093780517578 41.18960952758789 8.803810119628906 31.84251022338867 C 5.214889526367188 26.9361400604248 3.375 22.58879089355469 3.375 18.38656997680664 C 3.375 11.33366012573242 9.065029144287109 4.005641937255859 16.09523010253906 3.9375 Z" stroke="none" fill="#000"/>
    </g>
    <path id="패스_92" data-name="패스 92" d="M2874.521,9575.2c1.182,1.467.934,6.359-2.743,12.617s-14.487,14.321-14.112,11.152c.223-1.881,4.093-8.87,7.667-14.865S2873.34,9573.737,2874.521,9575.2Z" transform="translate(-1531.172 -9106.245)" fill="#eaedb0"/>
  </g>
</svg>
