<svg xmlns="http://www.w3.org/2000/svg" width="50.247" height="45.229" viewBox="0 0 50.247 45.229">
  <g id="report" transform="translate(-4555.083 -541.771)">
    <path id="패스_89" data-name="패스 89" d="M5168.135,1020.355l3.39-28.74a3.806,3.806,0,0,1,1.57-2.672,6.155,6.155,0,0,1,3.576-1.2l21.219-.072a6.793,6.793,0,0,1,3.5,1.358,5.617,5.617,0,0,1,1.438,3.1l3.5,28.224Z" transform="translate(-606.433 -444.404)" fill="#f43b45" stroke="#000" stroke-width="3"/>
    <path id="패스_91" data-name="패스 91" d="M5166.135,997.144l1.112-8.287a1.2,1.2,0,0,1,.413-.8,1.478,1.478,0,0,1,.94-.358l5.576-.022a1.653,1.653,0,0,1,.921.407,1.814,1.814,0,0,1,.378.929l1.142,8.132Z" transform="translate(-590.665 -424.515)" fill="#ef8229"/>
    <g id="패스_90" data-name="패스 90" transform="translate(4563.329 571.965)" fill="#676a75">
      <path d="M 37.94226837158203 9.470538139343262 L -3.394657373428345 9.470538139343262 L -2.858354091644287 1.575318574905396 L -2.854904174804688 1.524548649787903 L -2.854904174804688 1.499998569488525 L 37.36653518676758 1.499998569488525 L 37.36653518676758 1.527948617935181 L 37.37046432495117 1.582098603248596 L 37.94226837158203 9.470538139343262 Z" stroke="none"/>
      <path d="M -1.451675415039062 2.999998569488525 L -1.789314270019531 7.97053861618042 L 36.32959365844727 7.97053861618042 L 35.96929931640625 2.999998569488525 L -1.451675415039062 2.999998569488525 M -3.193737030029297 -9.5367431640625e-07 L 37.70535278320312 -9.5367431640625e-07 C 38.34665298461914 -9.5367431640625e-07 38.86653518676758 0.6597785949707031 38.86653518676758 1.473658561706543 L 39.55492401123047 10.97053813934326 L -5.000007629394531 10.97053813934326 L -4.354907989501953 1.473658561706543 C -4.354907989501953 0.6597785949707031 -3.835025787353516 -9.5367431640625e-07 -3.193737030029297 -9.5367431640625e-07 Z" stroke="none" fill="#000"/>
    </g>
    <g id="사각형_163" data-name="사각형 163" transform="translate(4555.083 578.543)" fill="#525467" stroke="#000" stroke-width="3">
      <rect width="50.247" height="8.457" rx="4.228" stroke="none"/>
      <rect x="1.5" y="1.5" width="47.247" height="5.457" rx="2.728" fill="none"/>
    </g>
    <path id="다각형_1" data-name="다각형 1" d="M5.307,3.757a3.972,3.972,0,0,1,6.148,0h0a3.972,3.972,0,0,1-3.074,6.486h0A3.972,3.972,0,0,1,5.307,3.757Z" transform="translate(4580.663 553.521) rotate(90)" fill="#f79f48"/>
    <path id="다각형_2" data-name="다각형 2" d="M5.307,3.757a3.972,3.972,0,0,1,6.148,0h0a3.972,3.972,0,0,1-3.074,6.486h0A3.972,3.972,0,0,1,5.307,3.757Z" transform="translate(4580.663 570.283) rotate(-90)" fill="#f79f48"/>
    <circle id="타원_34" data-name="타원 34" cx="4.423" cy="4.423" r="4.423" transform="translate(4576.472 557.711)" fill="#ffe471"/>
  </g>
</svg>
